<?xml version="1.0" encoding="iso-8859-1"?>
<!-- Generator: Adobe Illustrator 25.4.0, SVG Export Plug-In . SVG Version: 6.00 Build 0)  -->
<svg version="1.1" id="Layer_1" xmlns="http://www.w3.org/2000/svg" xmlns:xlink="http://www.w3.org/1999/xlink" x="0px" y="0px"
	 viewBox="0 0 1500 1000" style="enable-background:new 0 0 1500 1000;" xml:space="preserve">
<g>
	<path fill="#000000" d="M507.416,167.222c-11.554,0-19.459,2.128-35.877,10.033c-19.763,9.729-40.742,25.844-65.978,50.471
		c-49.255,48.039-84.829,96.991-112.497,153.847c-17.939,37.094-26.148,65.674-27.364,95.166
		c-0.912,26.147,4.257,43.174,17.027,55.031c8.209,7.905,15.202,10.642,27.06,11.25c8.209,0.609,11.25,0,19.459-2.735
		c13.074-4.257,21.283-8.818,39.526-22.5c39.526-29.188,77.836-64.762,107.024-99.118l10.338-12.467l2.128,3.648
		c5.473,8.819,14.29,7.298,24.932-4.256c11.554-12.466,27.364-37.701,31.013-50.471c1.216-4.257,1.824-5.169,4.561-5.169
		c3.04,0,22.195-3.953,27.364-5.473c1.52-0.607-3.04,4.865-9.729,11.858c-12.466,13.073-24.02,27.364-27.668,34.66
		c-3.04,6.082-2.736,11.858,1.216,14.899c7.297,5.776,17.939,0,38.31-20.371l12.77-13.074l-0.608,8.513
		c-0.304,7.298,0,9.122,2.128,11.858c3.649,4.56,9.729,5.473,16.722,2.737c6.081-2.129,14.29-8.21,27.364-20.067
		c6.689-6.082,8.513-6.994,7.601-4.866c-3.953,13.379,5.169,17.636,18.547,8.817c8.513-5.472,20.675-15.505,31.925-26.147
		c4.561-4.257,9.425-8.817,11.554-10.641l3.345-3.041l-3.953,8.513c-1.824,4.865-6.689,13.986-10.338,20.675l-6.385,12.161
		l-23.411,9.73c-18.547,7.601-46.519,19.762-76.011,33.14c-0.912,0.304-1.216-1.216-1.216-4.56c0-4.257-0.304-5.473-2.128-5.776
		c-3.04-0.609-5.777,2.432-12.466,12.161c-5.169,7.905-5.777,8.21-20.675,16.114c-37.702,19.459-54.424,35.269-54.728,50.471
		c0,10.338,7.297,16.418,22.499,17.939l7.297,0.609l-7.905,16.723c-4.257,8.817-7.905,16.418-8.209,16.721
		c0,0-7.601,1.825-17.027,3.953c-9.121,2.129-27.972,6.994-41.654,10.642c-13.986,3.648-25.54,6.385-26.148,6.081
		c-0.608,0,2.128-6.992,5.777-15.507c10.338-23.107,34.357-81.18,37.094-89.084c2.736-7.905,1.52-11.858-3.04-11.858
		c-4.865,0-10.946,11.25-43.478,80.876c-10.642,22.803-19.763,41.654-20.371,42.263c-0.608,0.607-17.939,5.776-38.918,11.857
		c-34.357,10.035-79.052,24.324-84.525,27.06c-0.912,0.609-2.128,2.128-2.128,3.344c0,1.825,3.344,3.953,13.074,9.122
		c23.107,11.25,32.837,20.675,37.702,35.878c2.432,7.601,3.04,28.884,1.216,51.383c-0.912,12.163-0.912,13.074,1.52,15.507
		c6.385,6.385,13.682,0.912,24.932-18.546c8.513-14.29,36.789-70.842,52.296-103.679c6.385-13.986,12.162-25.54,12.162-25.844
		c0.304-0.304,6.081-2.128,13.074-3.953c6.993-2.128,26.452-7.905,43.478-12.77c17.027-5.169,31.013-9.122,31.013-8.817
		c0.304,0.304-6.081,14.595-13.986,31.925c-17.635,38.613-31.925,71.147-56.248,129.524
		c-29.188,69.626-41.046,102.159-41.046,114.017l0,0c0,3.344,0.608,5.169,1.52,5.169c1.824,0,11.25-16.418,21.587-37.398
		c9.425-18.546,18.851-40.438,55.64-125.571c39.526-91.821,53.816-124.355,55.032-124.962c0.304,0,1.52-0.912,2.432-1.52
		c1.52-0.912,1.52-1.216,0.304-2.128c-1.216-0.912,0-4.561,5.473-16.723l7.297-15.811l5.169-1.519
		c18.851-5.473,26.756-8.514,41.35-15.507c42.262-20.371,71.147-47.127,97.294-89.997l8.209-13.377l18.851-6.385
		c18.547-6.385,106.416-34.054,132.868-41.958c10.034-3.041,13.682-3.648,13.378-2.432c-0.912,2.128,0.608,2.128,5.473-0.913
		c2.432-1.519,3.649-3.344,3.649-4.56c-1.216-5.169-23.107-2.432-61.417,8.209c-21.891,6.082-72.363,22.196-93.342,29.797
		c-6.081,2.432-11.25,3.953-11.25,3.953c-0.304-0.304,2.736-6.994,6.385-14.898c11.25-24.02,17.331-39.526,16.418-42.263
		c-1.824-4.865-7.905-4.257-13.682,1.216c-3.04,2.737-11.554,10.338-19.459,17.33c-15.506,14.29-37.702,32.229-38.31,31.318
		c-1.216-1.216,7.297-19.764,11.858-26.149c5.169-7.297,5.777-9.425,2.736-10.338c-2.736-1.216-9.121,4.866-13.378,12.163
		c-3.649,6.081-20.979,22.803-33.749,32.532c-15.506,11.554-24.02,14.595-24.02,8.513c0-4.56,5.777-21.587,11.554-34.053
		c5.473-11.554,9.729-18.242,44.391-68.106c27.972-40.438,33.141-49.864,27.364-51.992c-10.338-3.953-50.776,51.383-78.748,107.025
		c-4.561,9.425-7.601,13.377-20.979,27.059c-8.513,8.817-17.635,17.635-20.371,19.764l-5.169,3.952l2.432-3.648
		c3.953-6.081,15.506-20.067,26.756-32.532c7.905-8.817,10.642-12.466,10.338-14.594c-0.608-3.953-4.865-3.953-21.283,0.912
		c-7.905,2.128-18.243,4.865-22.803,5.473l-8.513,1.519l-2.432-3.04c-1.52-2.129-3.344-3.345-5.777-3.345
		c-1.824,0-3.649-0.607-4.257-1.216c-0.304-0.607-2.128-1.216-3.648-1.216c-6.993,0-25.236,22.5-36.181,44.999l-6.081,12.77
		l-27.972,27.972c-49.255,48.951-101.247,90.909-125.571,100.943c-6.993,3.041-10.338,3.344-18.851,3.648
		c-10.033,0-10.946-0.304-15.81-3.648c-3.953-2.737-6.689-6.081-9.729-11.858c-3.953-8.209-4.257-8.817-4.561-25.236
		c-0.912-35.269,9.425-71.754,33.749-119.793c26.756-52.296,60.201-98.51,100.943-139.253c34.053-34.053,63.85-52.296,85.437-52.296
		c17.635,0,24.324,10.033,20.067,29.188c-7.905,35.269-48.039,83.308-94.558,114.017c-7.297,4.56-12.162,8.817-12.466,10.338
		c-1.52,6.081,4.865,10.641,12.466,8.209c6.385-2.128,22.195-12.77,34.661-23.107c39.83-33.445,70.234-83.612,69.93-116.146
		C535.388,176.951,526.266,167.222,507.416,167.222L507.416,167.222z M674.336,244.754l-2.128,3.648
		c-1.216,2.128-5.777,9.122-10.338,15.507c-4.865,6.688-8.817,11.857-9.121,11.857c-0.304,0-0.304-0.607,0.304-1.519
		c1.824-3.041,16.114-23.412,18.851-26.453L674.336,244.754z M535.692,349.041c0.608,0,0.304,1.52-0.912,4.257
		c-2.736,6.994-6.993,13.682-14.898,24.324c-3.953,5.169-8.817,11.554-10.946,13.682l-3.953,4.257l4.257-8.514
		C517.145,370.932,533.564,348.433,535.692,349.041L535.692,349.041z M679.809,395.561c0.912,0.912-13.378,21.283-23.107,33.141
		c-21.283,25.539-53.512,48.646-85.437,60.809c-13.682,5.169-18.851,6.385-18.851,4.865c0-0.609,6.385-13.986,13.986-29.493
		l13.986-27.972l14.29-6.992C621.129,417.451,678.593,394.04,679.809,395.561L679.809,395.561z M799.299,396.472
		c-2.432-0.304-4.257,0.912-7.905,5.169c-11.554,12.77-36.181,51.992-58.377,92.43c-10.034,18.546-13.682,23.412-24.932,36.485
		c-6.993,7.905-17.635,18.851-23.107,23.715c-15.81,13.986-15.202,13.683-11.858,6.689c2.432-4.256,6.689-9.122,14.594-15.81
		c16.114-13.986,24.02-22.803,24.02-26.452c0-3.65-2.736-4.866-6.385-3.041c-5.777,3.041-18.851,14.594-24.932,22.195
		c-6.385,7.601-13.682,13.379-22.195,17.027c-5.473,2.128-6.081,1.521-6.081-7.905c0-7.905-1.52-11.857-5.473-12.77
		c-4.865-1.216-8.209,0.913-18.243,12.77c-5.169,6.081-9.729,10.642-10.034,10.033c0-0.607,1.52-5.776,3.345-11.857
		c4.257-11.858,4.561-14.595,2.128-15.507s-2.432-0.609-19.155,17.939c-24.628,27.972-54.424,56.552-58.985,56.552
		c-1.216,0,0.304-8.513,3.345-19.155c2.432-8.513,2.736-8.817,8.817-12.161c12.466-6.994,27.06-26.452,28.276-37.701
		c0.608-5.169,0.304-6.385-1.824-8.514c-5.777-5.776-16.418-1.519-25.236,10.338c-6.385,8.817-17.027,31.013-20.675,43.479
		c-6.689,23.715-4.865,34.66,5.777,34.66c7.297,0,24.628-15.81,49.255-44.389c6.993-8.514,13.074-14.899,13.378-14.899
		c0.304,0.304-1.52,4.865-3.953,10.338c-5.777,13.379-6.081,16.114-3.04,20.067c5.777,7.298,11.858,3.648,27.668-16.418
		l12.162-15.202l2.432,5.169c3.04,6.994,7.601,8.817,14.898,6.385l5.473-1.52l-0.304,4.561c-0.608,4.865,1.216,8.209,4.561,8.209
		c3.344,0,12.162-6.688,25.236-18.851l12.466-11.554l-21.283,42.567c-11.858,23.411-21.587,42.566-21.891,42.566
		c-0.304,0-15.202,3.041-33.141,6.689c-73.275,15.202-117.97,27.059-128.915,33.444c-2.736,1.825-3.953,3.345-3.953,5.778
		c0.304,8.513,3.345,8.817,27.364,1.824c29.492-8.817,58.377-16.114,95.47-24.627c17.939-3.953,33.445-7.601,34.965-7.905
		l2.736-0.607l-2.432,5.776c-5.473,12.77-10.946,28.58-10.946,32.532l0,0c0,3.041,0.608,4.257,1.824,4.257s1.824-0.609,1.824-1.521
		c0-0.912,5.473-10.945,12.162-22.803l11.858-21.283l15.202-3.344c34.965-7.601,84.525-17.636,159.32-31.925
		c110.977-21.283,163.88-31.621,164.793-32.534c2.128-2.128-1.824-2.128-14.594-0.912c-51.992,5.473-164.184,24.324-283.37,47.432
		c-17.331,3.344-31.925,5.776-32.229,5.776c0-0.304,18.243-36.181,41.35-79.355c29.796-56.553,45.911-85.742,57.161-103.376
		c17.939-27.972,25.54-42.262,25.236-45.91C802.644,397.688,801.427,396.777,799.299,396.472L799.299,396.472z M559.711,447.855
		L559.711,447.855c0,0.304-3.344,7.298-7.601,14.899c-4.257,7.904-10.338,19.458-13.378,25.54
		c-3.953,7.904-6.385,11.25-8.209,11.857c-6.689,1.825-17.331-0.304-20.979-3.953c-1.824-1.824-2.128-3.344-1.52-6.688
		c1.216-6.082,13.074-18.548,25.54-26.756C544.205,455.761,557.887,447.855,559.711,447.855L559.711,447.855z M1223.746,463.971
		h-9.121c-24.932,0.304-68.714,6.385-131.348,18.546c-20.067,3.953-42.262,8.21-49.863,9.426
		c-16.418,2.432-44.391,3.04-50.167,0.607c-3.953-1.824-4.257-2.128-3.953-8.513c0.304-4.56-2.128-6.081-6.385-4.257
		c-1.52,0.609-8.817,5.778-16.419,11.25c-7.601,5.473-13.986,9.73-14.29,9.73c-0.304,0,2.128-5.169,5.169-11.554
		c4.865-9.729,5.473-12.163,4.561-14.898c-1.824-4.866-6.081-4.866-20.675,0.303c-6.689,2.432-13.682,4.257-14.898,4.257
		c-1.52,0-5.777,2.737-9.425,5.776c-15.506,12.77-45.303,35.878-46.215,35.878c-0.608,0-1.824-3.04-2.736-6.689l-1.824-6.385
		l5.473-6.992c6.993-8.21,8.209-11.25,5.473-13.986c-1.824-1.825-2.432-1.825-6.385,0.304c-5.473,3.04-8.513,6.992-10.338,13.073
		c-0.912,3.65-4.865,7.905-20.675,22.803c-10.946,10.035-20.067,17.939-20.371,17.636c-0.304-0.304,1.824-5.169,4.561-11.251
		c9.729-20.979,10.338-25.236,5.473-30.405c-3.04-2.735-3.04-3.344-1.824-7.601c0.912-2.432,1.216-5.776,1.216-7.904
		c-0.912-7.601-10.034-3.953-13.986,5.472c-1.52,3.345-1.52,4.561-0.304,7.601c1.216,3.345,0.912,4.257-5.169,12.77
		c-10.642,15.507-25.54,34.053-35.269,44.086c-9.425,10.035-17.635,16.723-18.851,15.507c-0.304-0.304,0.912-5.169,2.736-10.641
		c3.04-9.122,3.953-10.338,7.297-11.251c4.865-1.216,16.418-12.769,21.283-20.979c6.081-10.642,3.953-20.067-4.257-20.067
		c-7.601,0-16.418,9.425-27.364,28.58c-9.425,16.723-14.594,31.318-13.074,39.222c0.304,1.825,2.128,4.866,3.649,6.385
		c4.865,4.257,12.466,3.041,21.283-3.953c12.466-9.425,31.317-33.444,47.735-60.2c4.257-6.689,7.905-11.554,8.209-10.642
		c0,0.913-3.344,8.21-7.601,16.115c-7.905,13.986-11.858,23.411-11.858,28.884c0,4.256,3.953,8.513,8.209,8.513
		c5.169,0,9.729-3.953,30.1-25.54c10.034-10.338,18.547-18.546,18.851-18.242c0.608,0.303,1.52,3.344,1.824,6.688l0.912,6.385
		l-10.034,9.122c-30.709,27.972-38.006,40.134-29.796,48.343l0,0c3.953,3.953,12.162,4.257,18.851,0.609
		c13.986-7.298,29.188-32.838,29.188-49.256c0-5.169,0.304-5.472,14.898-17.938c8.209-6.994,15.202-12.77,15.506-12.467
		c0,0.304-1.216,3.041-2.736,6.385c-1.824,3.345-3.649,8.514-3.953,11.25c-0.608,3.953-0.304,5.169,2.432,7.905
		c3.649,3.648,5.777,3.953,12.466,0.609c14.29-6.994,27.972-31.925,23.716-43.479l-1.216-3.648l9.121-3.344
		c5.169-1.52,9.425-2.737,9.729-2.737c0.304,0.304-2.432,4.256-5.777,8.817c-15.506,21.587-19.459,31.012-14.594,35.877
		c5.473,5.473,9.121,3.65,32.229-17.33l18.243-16.418l2.128,3.648c3.04,4.865,8.209,6.994,19.459,8.514
		c16.418,2.128,28.884,0.912,96.382-9.426c24.324-3.648,60.809-9.122,81.484-12.161c65.674-9.426,65.978-9.73,62.329-14.595
		C1231.956,464.578,1230.739,463.971,1223.746,463.971L1223.746,463.971z M916.052,487.99v3.648c0,2.128-1.216,6.689-3.04,10.033
		h0.304c-1.824,3.041-5.777,8.21-8.817,11.25l-5.473,5.473l2.736-6.081c5.473-10.946,9.425-18.243,11.858-21.284L916.052,487.99z
		 M573.698,536.637c0.304,0,0.304,0,0.304,0c0.304,0.304-0.912,3.65-3.344,6.994c-2.128,3.648-5.777,8.817-7.905,11.554l-4.257,4.56
		l3.04-6.081C565.488,546.67,572.177,536.941,573.698,536.637L573.698,536.637z M850.683,542.719l-3.344,6.688
		c-1.824,3.648-7.297,10.642-12.162,15.507c-4.865,4.865-9.425,8.817-10.034,8.817c-2.432,0,5.777-10.945,16.114-21.283
		L850.683,542.719z M396.743,583.764c0.912,0.609-4.257,11.858-33.749,72.667c-11.554,23.715-21.587,43.782-21.891,44.391
		c-0.608,0.304-1.52-7.297-1.824-17.027c-0.912-34.66-8.817-47.127-39.222-63.241l-11.858-6.385l7.297-2.128
		c3.649-0.912,17.939-4.865,31.317-8.513c29.188-7.906,67.498-18.852,69.626-19.764H396.743L396.743,583.764z"/>
</g>
</svg>
