<?xml version="1.0" encoding="UTF-8" standalone="no"?>
<!-- Created with Inkscape (http://www.inkscape.org/) -->

<svg
   xmlns:dc="http://purl.org/dc/elements/1.1/"
   xmlns:cc="http://creativecommons.org/ns#"
   xmlns:rdf="http://www.w3.org/1999/02/22-rdf-syntax-ns#"
   xmlns:svg="http://www.w3.org/2000/svg"
   xmlns="http://www.w3.org/2000/svg"
   xmlns:sodipodi="http://sodipodi.sourceforge.net/DTD/sodipodi-0.dtd"
   xmlns:inkscape="http://www.inkscape.org/namespaces/inkscape"
   version="1.1"
   id="svg20907"
   xml:space="preserve"
   width="800"
   height="800"
   viewBox="0 0 800 800"
   sodipodi:docname="family-outline-silhouette-publicdomainvectors.org.svg"
   inkscape:version="0.92.4 (5da689c313, 2019-01-14)"><metadata
     id="metadata20913"><rdf:RDF><cc:Work
         rdf:about=""><dc:format>image/svg+xml</dc:format><dc:type
           rdf:resource="http://purl.org/dc/dcmitype/StillImage" /><dc:title></dc:title></cc:Work></rdf:RDF></metadata><defs
     id="defs20911"><clipPath
       clipPathUnits="userSpaceOnUse"
       id="clipPath20923"><path
         d="M 0,600 H 600 V 0 H 0 Z"
         id="path20921"
         inkscape:connector-curvature="0" /></clipPath></defs><sodipodi:namedview
     pagecolor="#ffffff"
     bordercolor="#666666"
     borderopacity="1"
     objecttolerance="10"
     gridtolerance="10"
     guidetolerance="10"
     inkscape:pageopacity="0"
     inkscape:pageshadow="2"
     inkscape:window-width="797"
     inkscape:window-height="480"
     id="namedview20909"
     showgrid="false"
     inkscape:zoom="0.295"
     inkscape:cx="400"
     inkscape:cy="400"
     inkscape:window-x="-8"
     inkscape:window-y="-8"
     inkscape:window-maximized="1"
     inkscape:current-layer="g20915" /><g
     id="g20915"
     inkscape:groupmode="layer"
     inkscape:label="family-outline-silhouette-publicdomainvectors.org"
     transform="matrix(1.3333333,0,0,-1.3333333,0,800)"><g
       id="g20917"><g
         id="g20919"
         clip-path="url(#clipPath20923)"><path
           d="m 496.009,125.869 c 1.261,-0.091 1.793,0.321 1.958,1.454 0.042,0.262 0.057,0.531 0.091,0.795 l -10.923,-2.224 c 0.349,0.03 0.699,0.066 1.048,0.108 2.568,0.316 5.226,0.069 7.826,-0.133"
           style="fill:#3c5cb3;fill-opacity:1;fill-rule:nonzero;stroke:none"
           id="path20925"
           inkscape:connector-curvature="0" /><path
           d="m 296.835,134.566 c 0.366,-2.333 0.861,-4.469 0.005,-6.858 -0.665,-1.844 0.563,-3.673 2.333,-4.039 2.205,-0.463 4.42,-0.99 6.712,-0.871 1.907,0.096 2.87,0.798 3.283,2.696 0.197,0.921 0.591,1.6 1.238,2.219 1.063,1.017 1.292,2.911 3.218,3.062 0.189,0.014 0.468,0.339 0.504,0.55 0.211,1.312 1.225,1.477 2.252,1.793 1.32,0.406 2.258,1.409 2.716,2.595 l -22.47,2.391 c -0.093,-1.173 0.021,-2.371 0.209,-3.538"
           style="fill:#ad4a64;fill-opacity:1;fill-rule:nonzero;stroke:none"
           id="path20927"
           inkscape:connector-curvature="0" /><path
           d="m 408.248,137.515 c -1.737,-0.761 -2.397,-2.119 -2.654,-3.824 -0.073,-0.513 -0.046,-1.064 -0.206,-1.549 -0.253,-0.744 -0.707,-1.468 -0.01,-2.174 0.546,-0.55 1.123,-1.238 1.935,-1.247 2.429,-0.023 4.795,-0.802 7.257,-0.472 4.383,0.592 8.776,1.353 13.168,-0.027 0.477,-0.152 1.073,-0.157 1.549,-0.019 0.826,0.234 1.743,0.514 2.036,1.449 0.158,0.513 0.208,1.021 0.197,1.526 l -21.603,7.725 c -0.475,-0.567 -0.984,-1.087 -1.669,-1.388"
           style="fill:#a7959e;fill-opacity:1;fill-rule:nonzero;stroke:none"
           id="path20929"
           inkscape:connector-curvature="0" /><path
           d="m 298.659,143.723 c 0.267,-0.514 -0.091,-1 -0.426,-1.417 -1.046,-1.291 -1.491,-2.728 -1.607,-4.202 l 22.47,-2.391 c 0.604,1.567 0.369,3.455 -0.943,4.708 -0.806,0.78 -1.751,1.427 -2.668,2.091 -0.912,0.658 -1.735,1.376 -2.445,2.171 l -14.713,-0.211 c 0.099,-0.253 0.207,-0.503 0.332,-0.749"
           style="fill:#a7959e;fill-opacity:1;fill-rule:nonzero;stroke:none"
           id="path20931"
           inkscape:connector-curvature="0" /><path
           d="m 524.2,388.606 c 10e-4,0.051 0.005,0.101 0.005,0.152 0.06,4.883 -0.142,9.701 -1.348,14.456 -0.351,1.39 -0.495,2.832 -0.706,4.259 l -4.103,-1.975 z"
           style="fill:#dbe790;fill-opacity:1;fill-rule:nonzero;stroke:none"
           id="path20933"
           inkscape:connector-curvature="0" /><path
           d="m 522.151,407.473 c -0.255,1.734 -0.61,3.446 -1.563,5.015 -0.165,0.257 -0.092,0.679 -0.073,1.028 0.036,0.962 -0.184,1.87 -0.349,2.814 -0.633,3.649 -1.898,7.185 -1.853,10.967 0.01,1.164 -0.384,2.434 -0.925,3.484 -0.487,0.926 -0.577,1.807 -0.532,2.751 0.202,3.861 -0.486,7.62 -1.302,11.352 -0.193,0.867 -0.349,1.715 -0.257,2.576 0.312,2.972 -0.468,5.851 -0.917,8.726 -0.389,2.437 -1.584,4.589 -3.128,6.624 l 6.796,-57.312 z"
           style="fill:#e6ad5c;fill-opacity:1;fill-rule:nonzero;stroke:none"
           id="path20935"
           inkscape:connector-curvature="0" /><path
           d="m 499.076,347.903 c 0.34,5.744 -0.981,11.434 -0.546,17.179 0.351,3.493 0.067,6.966 -0.254,10.431 l -15.462,-23.449 16.394,-5.196 c -0.001,0.003 -0.003,0.005 -0.004,0.008 -0.109,0.321 -0.146,0.684 -0.128,1.027"
           style="fill:#e4f2a6;fill-opacity:1;fill-rule:nonzero;stroke:none"
           id="path20937"
           inkscape:connector-curvature="0" /><path
           d="m 503.608,383.6 c 1.502,-5.401 2.83,-10.855 3.042,-16.492 0.156,-4.337 -0.215,-8.673 -1.632,-12.846 -0.224,-0.651 -0.614,-1.288 -0.477,-2.008 0.138,-0.715 -0.233,-1.174 -0.701,-1.577 -1.32,-1.137 -2.581,-2.311 -3.265,-3.97 -0.033,-0.084 -0.079,-0.163 -0.136,-0.229 l 18.637,-5.908 c -0.089,1.761 -0.271,3.526 -0.547,5.293 -0.279,1.779 -0.389,3.65 0.147,5.438 1.151,3.846 1.637,7.826 1.747,11.782 0.138,5.347 1.237,10.481 2.421,15.639 0.74,3.243 1.301,6.509 1.356,9.884 l -6.152,16.892 z"
           style="fill:#e4f2a6;fill-opacity:1;fill-rule:nonzero;stroke:none"
           id="path20939"
           inkscape:connector-curvature="0" /><path
           d="m 487.238,227.082 c -0.541,3.282 -0.087,6.721 -0.284,10.072 -0.077,1.417 1.495,1.981 1.32,3.274 -0.165,1.279 -0.889,2.426 -0.779,3.801 0.115,1.375 0.202,2.774 -0.321,4.125 -0.147,0.386 -0.183,0.89 -0.073,1.285 0.77,2.673 1.376,5.328 0.004,8.005 -0.105,0.206 -0.078,0.523 -0.032,0.77 0.702,3.791 2.28,7.399 2.431,11.315 0.014,0.331 0.183,0.669 0.339,0.981 1.944,3.934 2.603,8.234 3.42,12.475 0.003,0.016 0.006,0.032 0.008,0.047 l -35.738,-49.366 c 0.056,-0.775 0.071,-1.559 0.029,-2.355 -0.124,-2.297 0.554,-4.778 0.866,-7.171 0.137,-1.082 0.307,-1.778 -0.633,-2.444 -0.861,-0.614 -1.219,-1.49 -0.899,-2.526 0.203,-0.633 0.01,-1.187 -0.091,-1.783 -0.023,-0.133 -0.041,-0.265 -0.063,-0.397 l 31.19,-5.065 c 0.312,4.98 0.138,9.946 -0.694,14.957"
           style="fill:#99dcef;fill-opacity:1;fill-rule:nonzero;stroke:none"
           id="path20941"
           inkscape:connector-curvature="0" /><path
           d="m 498.095,128.363 c 0.5,2.623 -0.064,3.554 -2.627,3.944 -4.264,0.641 -7.991,2.251 -10.824,5.621 -0.339,0.403 -0.771,0.715 -1.128,1.091 -0.107,0.113 -0.214,0.225 -0.323,0.337 L 467.98,126.429 c 0.14,-0.043 0.28,-0.088 0.42,-0.138 0.949,-0.33 2.072,-0.293 3.108,-0.243 5.209,0.254 10.405,-0.604 15.627,-0.154 l 10.923,2.224 c 0.01,0.082 0.022,0.164 0.037,0.245"
           style="fill:#568ad0;fill-opacity:1;fill-rule:nonzero;stroke:none"
           id="path20943"
           inkscape:connector-curvature="0" /><path
           d="m 476.299,147.225 c -1.448,2.559 -2.035,5.153 -1.54,8.179 0.852,5.254 2.71,10.21 3.998,15.327 0.802,3.196 1.417,6.432 2.278,9.61 2.251,8.275 4.961,16.418 6.186,24.972 0.326,2.278 0.568,4.546 0.711,6.812 l -31.19,5.065 c -0.645,-4.086 -0.451,-8.25 -1.047,-12.344 -0.394,-2.687 0.881,-5.098 1.409,-7.624 0.784,-3.732 2.016,-7.409 2.144,-11.229 0.139,-4.085 0.56,-8.151 0.551,-12.25 -0.014,-7.574 0.811,-15.125 0.573,-22.713 -0.073,-2.53 -0.486,-5.015 -0.687,-7.518 -0.074,-0.949 -0.226,-2.008 -0.725,-2.981 -0.214,-0.411 -0.411,-0.83 -0.598,-1.253 l 1.796,-12.191 c 0.354,0.002 0.707,0.009 1.058,-0.007 2.268,-0.095 4.541,0.028 6.764,-0.651 l 15.213,12.927 c -2.412,2.52 -5.13,4.766 -6.894,7.869"
           style="fill:#79b1e2;fill-opacity:1;fill-rule:nonzero;stroke:none"
           id="path20945"
           inkscape:connector-curvature="0" /><path
           d="m 494.839,293.637 -39.405,-26.862 c -0.787,-4.538 -0.168,-9.153 -0.559,-13.725 -0.252,-2.952 0.812,-5.997 1.077,-9.023 0.292,-3.418 1.335,-6.708 1.581,-10.161 l 35.738,49.366 c 0.657,3.445 1.233,6.9 1.568,10.405"
           style="fill:#c0e9dc;fill-opacity:1;fill-rule:nonzero;stroke:none"
           id="path20947"
           inkscape:connector-curvature="0" /><path
           d="m 493.307,414.346 c 0.034,1.3 0.071,2.602 0.029,3.901 -0.018,0.495 0.316,0.907 0.697,0.995 0.445,0.096 0.734,-0.372 0.963,-0.743 0.133,-0.221 0.33,-0.459 0.339,-0.692 0.036,-1.714 0.879,-3.184 1.502,-4.724 l 21.211,-7.585 -6.796,57.312 c -0.132,0.173 -0.266,0.346 -0.402,0.518 -2.036,2.569 -3.362,5.623 -4.631,8.654 l -26.671,-52.716 z"
           style="fill:#f2b45c;fill-opacity:1;fill-rule:nonzero;stroke:none"
           id="path20949"
           inkscape:connector-curvature="0" /><path
           d="m 499.984,346.294 c -0.381,0.032 -0.66,0.249 -0.776,0.574 l -16.394,5.196 13.223,-28.001 c -0.012,0.079 -0.021,0.156 -0.033,0.234 -0.155,1.072 0.074,1.889 1.32,2.136 0.5,0.101 0.963,0.384 1.449,0.578 1.651,0.669 2.986,-0.194 2.811,-1.986 -0.17,-1.718 0.587,-3.855 -1.807,-4.823 -0.444,-0.179 -0.554,-0.861 -0.508,-1.407 0.055,-0.689 0.477,-1.329 1.109,-1.22 2.274,0.39 4.842,0.083 6.584,1.981 2.402,2.613 5.359,4.415 8.45,6.006 1.729,0.889 2.585,2.233 2.93,4.03 0.69,3.657 0.919,7.312 0.734,10.978 l -18.637,5.908 c -0.105,-0.123 -0.252,-0.202 -0.455,-0.184"
           style="fill:#d6f0cf;fill-opacity:1;fill-rule:nonzero;stroke:none"
           id="path20951"
           inkscape:connector-curvature="0" /><path
           d="m 333.765,149.737 c 0.619,-0.609 1.197,-1.274 1.884,-1.797 1.467,-1.119 2.852,-1.072 4.328,0.024 1.568,1.169 1.958,2.567 1.293,4.625 -0.018,0.056 -0.038,0.109 -0.055,0.164 l -12.206,1.719 c 1.568,-1.594 3.161,-3.165 4.756,-4.735"
           style="fill:#ae827f;fill-opacity:1;fill-rule:nonzero;stroke:none"
           id="path20953"
           inkscape:connector-curvature="0" /><path
           d="m 296.908,151.066 c 0.623,-2.17 0.593,-4.479 1.419,-6.594 l 14.713,0.211 c -1.226,1.372 -2.112,2.979 -2.524,4.926 -0.417,1.957 -0.863,3.911 -1.358,5.85 -0.093,0.368 -0.17,0.737 -0.234,1.108 L 295.996,154 c 0.322,-0.972 0.631,-1.948 0.912,-2.934"
           style="fill:#ae827f;fill-opacity:1;fill-rule:nonzero;stroke:none"
           id="path20955"
           inkscape:connector-curvature="0" /><path
           d="m 480.283,494.692 c -0.471,0.176 -0.944,0.351 -1.416,0.528 -1.133,0.426 -2.206,0.912 -3.448,1.123 -2.536,0.431 -4.982,1.177 -7.362,2.101 l 3.791,-31.111 z"
           style="fill:#ef3d1f;fill-opacity:1;fill-rule:nonzero;stroke:none"
           id="path20957"
           inkscape:connector-curvature="0" /><path
           d="m 504.022,476.726 c -1.009,2.002 -2.03,4 -2.727,6.161 -0.526,1.646 -1.265,3.508 -3.017,4.433 -1.824,0.968 -3.668,1.935 -5.584,2.687 -4.115,1.622 -8.267,3.14 -12.411,4.685 l -8.435,-27.359 z"
           style="fill:#f25235;fill-opacity:1;fill-rule:nonzero;stroke:none"
           id="path20959"
           inkscape:connector-curvature="0" /><path
           d="m 479.548,419.266 26.671,52.716 c -0.138,0.329 -0.275,0.657 -0.412,0.984 -0.538,1.28 -1.16,2.52 -1.785,3.76 l -32.174,-9.393 z"
           style="fill:#f69a44;fill-opacity:1;fill-rule:nonzero;stroke:none"
           id="path20961"
           inkscape:connector-curvature="0" /><path
           d="m 498.276,375.513 c -0.136,1.469 -0.279,2.937 -0.382,4.405 -0.317,4.544 -1.357,9.051 -2.256,13.534 -0.312,1.569 0.018,3.137 -0.371,4.658 -0.803,3.114 -1.133,6.305 -1.679,9.463 -0.39,2.247 -0.34,4.51 -0.281,6.773 l -13.759,4.92 3.266,-67.202 z"
           style="fill:#efe989;fill-opacity:1;fill-rule:nonzero;stroke:none"
           id="path20963"
           inkscape:connector-curvature="0" /><path
           d="m 497.976,409.22 c 2.586,-2.123 2.393,-5.383 3.448,-8.125 0.325,-0.848 0.252,-1.714 0.257,-2.581 0.008,-1.916 -0.019,-3.832 0.018,-5.749 0.036,-1.981 0.403,-3.861 0.963,-5.818 0.317,-1.114 0.635,-2.23 0.946,-3.347 l 14.44,21.898 -21.211,7.585 c 0.313,-0.775 0.573,-1.568 0.643,-2.419 0.041,-0.5 0.157,-1.165 0.496,-1.444"
           style="fill:#efe989;fill-opacity:1;fill-rule:nonzero;stroke:none"
           id="path20965"
           inkscape:connector-curvature="0" /><path
           d="m 471.848,467.333 -3.791,31.111 c -1.794,0.698 -3.55,1.496 -5.278,2.341 -2.04,0.995 -3.984,2.008 -6.231,2.481 -2.241,0.477 -2.823,1.98 -1.646,4.044 0.404,0.714 0.702,1.384 0.729,2.172 0.074,2.247 -0.11,4.521 0.935,6.649 0.216,0.431 0.157,1.031 0.124,1.549 -0.078,1.33 0.184,2.595 0.656,3.824 1.008,2.632 0.34,5.355 -1.246,7.129 -1.661,1.852 -2.935,4.054 -4.87,5.672 -0.93,0.783 -1.627,1.778 -2.334,2.787 -1.453,2.091 -3.773,3.246 -5.662,4.869 -0.178,0.155 -0.486,0.233 -0.733,0.229 -1.647,-0.045 -3.008,0.744 -4.401,1.44 -1.028,0.514 -2.105,0.788 -3.265,0.774 -0.862,-0.008 -1.705,0.16 -2.558,0.289 -1.603,0.242 -3.189,0.298 -4.76,0.156 l -23.194,-33.75 c -0.079,-4.076 -0.245,-4.284 -3.787,-5.511 l -8.489,-12.355 z"
           style="fill:#f2521b;fill-opacity:1;fill-rule:nonzero;stroke:none"
           id="path20967"
           inkscape:connector-curvature="0" /><path
           d="m 410.947,328.497 84.923,-23.819 c 0.055,0.913 0.081,1.828 0.061,2.747 -0.018,0.958 -0.101,1.934 0.055,2.87 0.74,4.594 0.715,9.179 0.051,13.768 l -13.223,28.001 z"
           style="fill:#e7f4b7;fill-opacity:1;fill-rule:nonzero;stroke:none"
           id="path20969"
           inkscape:connector-curvature="0" /><path
           d="m 495.015,295.774 c 0.192,2.973 0.676,5.926 0.855,8.904 l -84.923,23.819 28.069,-72.376 c 0.447,3.23 2.297,6.353 0.761,9.738 -0.027,0.06 0.055,0.165 0.065,0.248 0.137,1.045 0.187,2.081 -0.197,3.09 -0.262,0.669 -0.29,1.38 -0.097,2.054 1.009,3.559 1,7.198 0.963,10.848 -0.009,0.862 -0.133,1.737 0.28,2.567 1.397,2.815 1.935,5.914 2.934,8.862 0.67,1.976 1.481,3.861 1.618,5.997 0.083,1.27 0.583,2.517 0.913,3.769 0.141,0.527 0.435,1.018 1.04,0.935 0.532,-0.069 0.45,-0.637 0.541,-1.045 0.794,-3.553 1.706,-7.056 3.008,-10.476 0.949,-2.494 1.999,-4.966 2.65,-7.593 1.357,-5.427 1.559,-10.989 2.173,-16.505 0.032,-0.248 0.037,-0.518 -0.022,-0.76 -0.082,-0.358 -0.15,-0.716 -0.212,-1.075 l 39.405,26.862 c 0.067,0.711 0.129,1.423 0.176,2.137"
           style="fill:#dff3d3;fill-opacity:1;fill-rule:nonzero;stroke:none"
           id="path20971"
           inkscape:connector-curvature="0" /><path
           d="m 422.347,543.616 c -2.733,-1.082 -4.764,-3.178 -7.282,-4.525 -2.375,-1.266 -4.167,-3.09 -5.638,-5.286 -0.193,-0.289 -0.266,-0.697 -0.514,-0.904 -2.943,-2.411 -3.668,-5.762 -3.943,-9.293 -0.321,-4.08 -0.569,-8.161 -0.642,-12.259 -10e-4,-0.086 -0.003,-0.167 -0.005,-0.25 l 23.194,33.75 c -1.741,-0.158 -3.462,-0.558 -5.17,-1.233"
           style="fill:#f14a1c;fill-opacity:1;fill-rule:nonzero;stroke:none"
           id="path20973"
           inkscape:connector-curvature="0" /><path
           d="m 394.943,498.429 c 0.033,-0.048 0.061,-0.095 0.055,-0.138 -0.031,-0.233 -0.101,-0.467 -0.15,-0.701 -0.083,0.023 -0.216,0.023 -0.24,0.073 -0.176,0.373 0.042,0.592 0.335,0.766 m 0.334,0.105 c -0.074,-0.123 -0.173,-0.147 -0.298,-0.078 0.054,0.049 0.107,0.098 0.166,0.134 0.028,0.009 0.087,-0.037 0.132,-0.056 m 5.259,7.054 c -0.163,-0.057 -0.331,-0.115 -0.509,-0.176 -0.329,-0.11 -0.669,-0.184 -1.007,-0.275 -0.624,-0.184 -1.174,-0.569 -1.266,-1.201 -0.192,-1.331 -1.229,-1.789 -2.173,-2.403 -1.477,-0.959 -2.834,-1.944 -2.793,-4.053 0.018,-0.892 -0.249,-1.639 -0.878,-2.049 l 0.137,-2.198 z"
           style="fill:#f14a1c;fill-opacity:1;fill-rule:nonzero;stroke:none"
           id="path20975"
           inkscape:connector-curvature="0" /><path
           d="m 455.755,132.041 c -0.582,-1.527 0.105,-2.953 0.757,-4.224 0.546,-1.081 1.866,-0.636 2.875,-0.71 0.256,-0.019 0.513,-0.021 0.771,-0.02 l -1.796,12.191 c -1.033,-2.344 -1.694,-4.837 -2.607,-7.237"
           style="fill:#99bcc3;fill-opacity:1;fill-rule:nonzero;stroke:none"
           id="path20977"
           inkscape:connector-curvature="0" /><path
           d="m 411.489,157.587 c 0.376,-2.875 0.441,-5.754 0.074,-8.597 -0.293,-2.264 -0.632,-4.461 0.064,-6.703 0.175,-0.555 0.303,-1.205 -0.247,-1.705 -0.546,-0.493 -0.987,-1.11 -1.463,-1.679 l 21.603,-7.725 c -0.028,1.218 -0.415,2.422 -0.532,3.636 -0.1,1.069 -0.963,1.624 -1.81,2.082 -0.743,0.399 -1.257,0.839 -1.239,1.783 0.046,2.439 -0.325,4.947 0.12,7.303 0.44,2.343 -0.101,4.26 -1.05,6.236 -0.601,1.261 -1.087,2.582 -1.132,3.97 -0.197,5.919 -0.01,11.806 1.247,17.628 0.87,3.98 1.531,8.019 1.792,12.072 0.266,4.099 0.977,8.106 1.757,12.108 L 409.299,170.12 c 0.872,-4.148 1.632,-8.319 2.19,-12.533"
           style="fill:#99bcc3;fill-opacity:1;fill-rule:nonzero;stroke:none"
           id="path20979"
           inkscape:connector-curvature="0" /><path
           d="m 479.548,419.266 -93.569,16.799 7.585,-32.675 c 0.461,0.744 0.928,1.486 1.393,2.23 1.018,1.623 2.109,3.416 1.632,5.58 -0.179,0.821 0.146,1.518 0.779,2.09 1.257,1.138 2.045,2.567 2.623,4.146 0.266,0.738 0.596,1.48 1.596,1.453 0.825,-0.028 1.247,-0.597 1.522,-1.243 1.439,-3.342 2.824,-6.579 1.893,-10.503 -0.839,-3.54 -1.288,-7.153 -2.93,-10.467 -0.343,-0.688 -0.568,-1.486 -0.632,-2.252 -0.294,-3.475 -1.127,-6.862 -1.678,-10.297 -0.218,-1.342 -0.487,-2.667 -0.804,-3.978 l 11.989,-51.652 z"
           style="fill:#fae23a;fill-opacity:1;fill-rule:nonzero;stroke:none"
           id="path20981"
           inkscape:connector-curvature="0" /><path
           d="m 479.548,419.266 -68.601,-90.769 71.867,23.567 z"
           style="fill:#f5f57b;fill-opacity:1;fill-rule:nonzero;stroke:none"
           id="path20983"
           inkscape:connector-curvature="0" /><path
           d="m 385.979,436.065 93.569,-16.799 -7.7,48.067 z"
           style="fill:#f9ad2a;fill-opacity:1;fill-rule:nonzero;stroke:none"
           id="path20985"
           inkscape:connector-curvature="0" /><path
           d="m 392.047,493.233 -6.068,-57.168 85.869,31.268 z"
           style="fill:#f78f13;fill-opacity:1;fill-rule:nonzero;stroke:none"
           id="path20987"
           inkscape:connector-curvature="0" /><path
           d="m 406.397,285.938 c 0.549,-2.886 0.82,-5.81 1.077,-8.727 0.229,-2.595 0.476,-5.227 -0.12,-7.813 -0.472,-2.016 -0.385,-3.965 0.285,-5.904 0.228,-0.656 0.719,-1.366 0.325,-1.999 -0.247,-0.4 -0.407,-0.804 -0.503,-1.208 l 31.512,-4.56 c 0.003,0.063 0.007,0.127 0.015,0.193 0.008,0.067 0.018,0.134 0.028,0.201 l -28.069,72.376 z"
           style="fill:#ddf0ae;fill-opacity:1;fill-rule:nonzero;stroke:none"
           id="path20989"
           inkscape:connector-curvature="0" /><path
           d="m 401.926,209.504 c 0.454,-7.454 1.468,-14.855 3.283,-22.135 1.436,-5.734 2.873,-11.468 4.09,-17.249 l 21.374,27.876 c 0.097,0.497 0.194,0.993 0.293,1.49 0.692,3.493 1.155,6.988 1.256,10.577 0.056,2.171 -0.173,4.313 -0.362,6.458 l -30.023,-4.688 c 0.012,-0.776 0.041,-1.554 0.089,-2.329"
           style="fill:#acd5b1;fill-opacity:1;fill-rule:nonzero;stroke:none"
           id="path20991"
           inkscape:connector-curvature="0" /><path
           d="m 407.682,256.947 26.69,-26.109 c 0.892,1.314 2.021,2.549 1.485,4.405 -0.078,0.256 0.198,0.651 0.386,0.936 1.017,1.567 0.692,3.474 1.334,5.162 0.564,1.489 0.193,3.181 0.448,4.722 0.203,1.219 0.492,2.278 0.038,3.53 -0.468,1.302 1.284,1.99 1.247,3.255 -0.019,0.518 0.004,1.054 -0.138,1.541 -0.137,0.45 -0.224,0.88 -0.199,1.338 l -31.512,4.56 c -0.268,-1.119 -0.04,-2.245 0.221,-3.34"
           style="fill:#c1e8ba;fill-opacity:1;fill-rule:nonzero;stroke:none"
           id="path20993"
           inkscape:connector-curvature="0" /><path
           d="m 407.804,256.442 c 0.682,-2.851 -1.477,-5.291 -0.995,-8.078 0.018,-0.11 -0.198,-0.27 -0.322,-0.394 -0.948,-0.986 -1.031,-2.1 -0.696,-3.388 0.298,-1.169 0.619,-2.545 -0.105,-3.549 -0.996,-1.389 -0.936,-2.838 -0.597,-4.24 0.427,-1.793 -0.064,-3.421 -0.435,-5.071 -0.637,-2.825 -2.407,-5.456 -1.335,-8.551 0.07,-0.188 -0.155,-0.472 -0.219,-0.72 -0.967,-3.484 -1.317,-7.055 -1.263,-10.618 l 30.023,4.688 c -0.145,1.655 -0.268,3.312 -0.215,4.986 0.109,3.292 0.769,6.281 2.539,9.046 0.061,0.095 0.124,0.19 0.188,0.285 l -26.69,26.109 c 0.041,-0.169 0.082,-0.337 0.122,-0.505"
           style="fill:#bde6ae;fill-opacity:1;fill-rule:nonzero;stroke:none"
           id="path20995"
           inkscape:connector-curvature="0" /><path
           d="m 368.796,408.84 c -0.579,-1.583 -1.063,-3.218 -1.86,-4.687 -0.587,-1.082 -1.615,-2.164 -1.615,-3.484 0.014,-3.558 -3.117,-5.786 -3.704,-9.068 -0.064,-0.376 -0.505,-0.409 -0.794,-0.587 -2.241,-1.404 -3.277,-3.512 -3.442,-6.094 -0.055,-0.871 0.009,-1.751 -0.482,-2.535 -1.843,-2.935 -2.507,-6.281 -3.113,-9.601 -1.017,-5.575 -2.54,-10.975 -4.74,-16.193 -0.505,-1.2 -1.211,-2.462 -0.963,-3.74 0.349,-1.807 -0.087,-3.605 0.321,-5.411 0.1,-0.452 0.162,-0.931 0.185,-1.416 l 19.2,-5.396 c -1.014,1.879 -2.203,3.665 -3.422,5.428 -2.796,4.029 -2.466,9.522 0.776,13.134 1.857,2.069 3.562,4.269 5.442,6.319 1.761,1.929 3.035,4.415 5.043,5.936 2.549,1.935 4.044,4.457 4.896,7.171 1.578,5.053 3.966,9.55 7.244,13.64 0.322,0.399 0.624,0.857 0.789,1.339 1.221,3.507 3.069,6.669 5.007,9.795 l -7.585,32.675 z"
           style="fill:#fadd32;fill-opacity:1;fill-rule:nonzero;stroke:none"
           id="path20997"
           inkscape:connector-curvature="0" /><path
           d="m 398.958,380.149 c -0.825,-3.411 -1.987,-6.716 -3.487,-9.922 -0.459,-0.977 -1.082,-1.816 -2.073,-2.256 -2.306,-1.036 -4.181,-2.838 -6.611,-3.632 -0.866,-0.284 -1.165,-0.943 -1.183,-1.824 -0.013,-0.807 0.293,-1.523 0.545,-2.265 1.069,-3.136 2.481,-6.121 4.168,-8.968 1.028,-1.742 1.578,-3.695 0.771,-5.487 -0.977,-2.147 -1.504,-4.581 -3.535,-6.213 -0.904,-0.725 -1.746,-1.843 -1.004,-3.21 0.228,-0.426 0.475,-0.834 0.737,-1.225 l 12.722,-3.575 c 1.225,0.188 2.115,-0.072 2.67,-0.751 l 8.269,-2.324 z"
           style="fill:#fadd32;fill-opacity:1;fill-rule:nonzero;stroke:none"
           id="path20999"
           inkscape:connector-curvature="0" /><path
           d="m 345.332,327.744 c -0.11,-0.289 -0.032,-0.687 0.064,-1.009 0.596,-2.067 0.596,-2.053 -1.008,-3.172 -0.495,-0.344 -0.89,-0.862 -1.417,-1.132 -2.261,-1.179 -3.783,-3.251 -5.722,-4.81 -2.572,-2.063 -4.97,-2.164 -7.808,-1.192 -1.311,0.449 -2.705,0.651 -4.062,0.972 -1.1,0.26 -1.541,0.422 -1.671,0.914 l -14.029,-54.218 21.559,-0.749 c 0.229,1.137 -0.042,2.315 -0.174,3.493 -0.248,2.219 -0.908,4.424 -0.678,6.656 0.114,1.092 -0.032,2.018 -0.293,3.045 -0.679,2.678 -1.363,5.451 -0.377,8.143 0.899,2.465 1.624,4.956 2.055,7.528 0.233,1.416 0.907,2.402 2.164,3.044 2.237,1.16 4.423,2.43 6.711,3.479 5.53,2.54 10.224,6.181 14.415,10.54 1.256,1.312 2.337,2.93 4.19,3.425 0.924,0.247 1.553,0.661 2.041,1.328 l -15.162,19.014 c -0.241,-1.776 -0.154,-3.588 -0.798,-5.299"
           style="fill:#ede381;fill-opacity:1;fill-rule:nonzero;stroke:none"
           id="path21001"
           inkscape:connector-curvature="0" /><path
           d="m 348.367,343.809 c -0.871,-3.182 -1.257,-6.46 -2.031,-9.646 -0.09,-0.371 -0.154,-0.745 -0.206,-1.12 l 15.162,-19.014 c 0.155,0.214 0.298,0.453 0.431,0.722 0.774,1.577 1.81,1.605 2.828,0.105 0.559,-0.82 1.155,-1.526 2.063,-1.916 1.312,-0.564 2.2,0.05 2.311,1.481 0.073,0.926 -0.275,1.769 -0.688,2.485 -1.036,1.811 -0.646,3.365 0.724,4.667 2.733,2.609 2.916,5.795 2.228,9.169 -0.398,1.953 -0.944,3.879 -1.581,5.768 -0.483,1.436 -1.108,2.8 -1.819,4.118 l -19.2,5.396 c 0.034,-0.755 -0.032,-1.522 -0.222,-2.215"
           style="fill:#f3f280;fill-opacity:1;fill-rule:nonzero;stroke:none"
           id="path21003"
           inkscape:connector-curvature="0" /><path
           d="m 402.678,330.821 c 0.468,-0.573 0.699,-1.442 0.687,-2.595 -0.063,-5.993 0.221,-11.957 1.055,-17.895 0.339,-2.406 0.623,-4.805 0.266,-7.243 -0.064,-0.413 0.083,-0.854 0.119,-1.284 0.28,-3.549 0.615,-7.097 0.802,-10.655 0.06,-1.137 0.133,-2.26 0.399,-3.356 0.146,-0.616 0.273,-1.235 0.391,-1.855 l 4.55,42.559 z"
           style="fill:#f3f280;fill-opacity:1;fill-rule:nonzero;stroke:none"
           id="path21005"
           inkscape:connector-curvature="0" /><path
           d="m 392.563,330.885 c 0.936,-0.354 1.927,-0.477 2.816,-0.16 1.33,0.471 2.732,0.421 4.085,0.742 0.188,0.045 0.368,0.079 0.544,0.105 l -12.722,3.575 c 1.293,-1.924 3.006,-3.397 5.277,-4.262"
           style="fill:#f3f280;fill-opacity:1;fill-rule:nonzero;stroke:none"
           id="path21007"
           inkscape:connector-curvature="0" /><path
           d="m 391.91,495.431 c -0.373,-0.244 -0.874,-0.369 -1.519,-0.335 -0.491,0.028 -1.028,-0.193 -1.504,-0.404 -0.995,-0.444 -1.44,-1.232 -1.245,-1.994 l 4.405,0.535 z"
           style="fill:#f2561a;fill-opacity:1;fill-rule:nonzero;stroke:none"
           id="path21009"
           inkscape:connector-curvature="0" /><path
           d="m 331.8,249.497 c -0.094,0.582 -0.077,1.213 0.09,1.737 0.811,2.568 0.357,4.989 -0.533,7.4 -0.522,1.422 -0.687,2.815 -0.214,4.328 0.039,0.128 0.07,0.257 0.095,0.386 l -21.559,0.749 z"
           style="fill:#d0e597;fill-opacity:1;fill-rule:nonzero;stroke:none"
           id="path21011"
           inkscape:connector-curvature="0" /><path
           d="m 376.857,433.747 c -0.085,-0.272 -0.12,-0.557 -0.12,-0.856 -0.005,-2.321 -0.917,-4.374 -1.723,-6.488 -0.762,-2.017 -1.486,-4.117 -0.473,-6.327 0.206,-0.454 0.372,-1.032 0.051,-1.513 -0.99,-1.49 -2.37,-2.76 -2.623,-4.667 -1.657,-1.369 -2.484,-3.176 -3.173,-5.056 l 17.183,27.225 z"
           style="fill:#fab310;fill-opacity:1;fill-rule:nonzero;stroke:none"
           id="path21013"
           inkscape:connector-curvature="0" /><path
           d="m 323.096,160.847 c 1.889,-2.203 3.881,-4.31 5.913,-6.375 l 12.206,-1.719 c -1.253,3.802 -3.309,7.167 -5.768,10.271 -1.87,2.366 -1.999,4.667 -0.55,7.24 0.836,1.484 1.755,2.909 2.708,4.313 L 321.02,163.584 c 0.65,-0.942 1.331,-1.871 2.076,-2.737"
           style="fill:#b4b89f;fill-opacity:1;fill-rule:nonzero;stroke:none"
           id="path21015"
           inkscape:connector-curvature="0" /><path
           d="m 308.374,165.143 c -0.444,4.741 -0.651,9.52 0.316,14.257 0.162,0.771 0.129,1.661 0.895,2.081 1.077,0.588 1.228,1.57 1.426,2.615 0.238,1.283 0.559,2.549 0.949,3.796 0.399,1.284 0.587,2.576 0.225,3.856 -0.317,1.105 -0.211,1.98 0.503,2.915 1.055,1.39 1.293,3.045 0.79,4.695 -1.055,3.453 -0.431,6.675 1.063,9.843 0.403,0.854 0.917,1.206 1.844,0.899 1.805,-0.605 3.566,-1.265 5.253,-2.246 2.632,-1.523 4.379,-3.953 6.611,-5.874 1.128,-0.971 1.779,-2.32 0.872,-3.965 -0.624,-1.128 -0.964,-2.384 -1.596,-3.536 -0.862,-1.582 -1.962,-3.13 -2.104,-5.014 -0.299,-4.008 -1.724,-7.799 -2.188,-11.778 -0.082,-0.666 -0.485,-1.294 -0.752,-1.94 -0.33,-0.808 -0.668,-1.609 -0.659,-2.508 0.008,-1.092 -0.436,-2.017 -1.041,-2.898 -1.517,-2.209 -1.352,-4.424 0.115,-6.578 0.041,-0.06 0.083,-0.119 0.124,-0.179 l 16.585,10.993 c 0.563,0.828 1.136,1.65 1.711,2.472 5.924,8.505 9.5,17.922 11.013,28.164 0.33,2.229 -0.147,4.371 -0.327,6.539 l -57.823,2.177 z"
           style="fill:#beb987;fill-opacity:1;fill-rule:nonzero;stroke:none"
           id="path21017"
           inkscape:connector-curvature="0" /><path
           d="m 292.179,213.929 57.823,-2.177 c -0.02,0.244 -0.037,0.488 -0.049,0.732 -0.105,2.43 -0.559,4.832 -0.605,7.281 -0.018,1.165 -0.178,2.503 -1.779,2.824 -2.494,0.504 -4.172,2.017 -5.25,4.291 -0.256,0.536 -0.728,0.972 -1.094,1.458 -1.239,1.687 -2.537,3.328 -3.682,5.075 -0.61,0.931 -0.675,2.453 -1.472,2.976 -1.99,1.311 -3.237,2.696 -2.448,5.199 -1.366,2.256 -0.918,4.924 -1.687,7.326 -0.058,0.185 -0.104,0.381 -0.136,0.583 l -22.121,14.6 z"
           style="fill:#cfca82;fill-opacity:1;fill-rule:nonzero;stroke:none"
           id="path21019"
           inkscape:connector-curvature="0" /><path
           d="m 374.527,468.449 c 0.022,0.02 0.042,0.039 0.064,0.059 -0.003,0.004 -0.005,0.007 -0.008,0.011 -0.019,-0.024 -0.037,-0.046 -0.056,-0.07"
           style="fill:#f57515;fill-opacity:1;fill-rule:nonzero;stroke:none"
           id="path21021"
           inkscape:connector-curvature="0" /><path
           d="m 382.871,460.922 c -0.55,-0.551 -1.2,-1.009 -1.724,-1.578 -0.485,-0.536 -0.852,-1.178 0.029,-1.733 0.274,-0.178 0.728,-0.266 0.545,-0.715 -0.142,-0.348 -0.564,-0.321 -0.899,-0.367 -0.17,-0.027 -0.343,-0.05 -0.517,-0.073 -1.206,-0.138 -1.669,0.761 -2.118,1.595 -0.478,0.872 0.109,1.495 0.677,2.05 0.958,0.944 2.183,1.398 3.467,1.673 0.22,0.05 0.577,-0.027 0.688,-0.179 0.091,-0.133 0,-0.527 -0.148,-0.673 m 9.176,32.311 -4.405,-0.535 c 0.104,-0.41 0.393,-0.813 0.887,-1.15 0.972,-0.67 0.78,-1.266 0.326,-1.936 -0.669,-0.98 -1.343,-1.999 -2.214,-2.782 -1.875,-1.687 -1.936,-1.638 -0.909,-3.604 0.157,-0.302 0.496,-0.628 0.111,-0.885 -0.33,-0.22 -0.614,0.101 -0.78,0.413 -0.627,1.191 -1,0.55 -1.325,-0.192 -0.316,-0.73 -0.078,-1.358 0.417,-1.926 0.367,-0.422 0.23,-0.822 -0.165,-1.11 -2.475,-1.806 -4.722,-4.126 -8.211,-3.732 -0.426,0.051 -0.871,0 -1.306,-0.041 -0.147,-0.014 -0.376,-0.097 -0.413,-0.201 -0.115,-0.299 0.1,-0.473 0.358,-0.583 1.847,-0.825 3.736,-0.5 5.639,-0.239 0.578,0.083 1.38,0.972 1.752,-0.11 0.301,-0.889 0.343,-1.925 -0.469,-2.682 -0.307,-0.289 -0.724,-0.462 -1.096,-0.683 -0.765,-0.44 -1.453,-0.89 -0.242,-1.632 0.449,-0.266 0.495,-0.725 0.316,-1.137 -0.229,-0.522 -0.665,-0.408 -1.087,-0.211 -1.049,0.477 -2.251,0.138 -3.31,0.642 -0.512,0.243 -0.95,-0.064 -1.33,-0.409 1.214,-1.584 2.93,-2.403 4.76,-2.975 0.595,-0.182 1.352,-0.27 1.362,-0.93 0.009,-0.729 -0.895,-0.669 -1.395,-0.962 -0.6,-0.354 -1.545,-0.216 -1.856,-0.863 -1.023,-2.141 -2.952,-2.462 -4.961,-2.715 -0.165,-0.022 -0.339,-0.114 -0.463,-0.224 -0.119,-0.11 -0.179,-0.275 -0.27,-0.421 0.142,-0.069 0.275,-0.193 0.421,-0.207 0.431,-0.041 0.872,-0.06 1.307,-0.05 1.206,0.027 1.261,-0.646 0.926,-1.532 -0.123,-0.32 -0.39,-0.591 -0.49,-0.917 -0.285,-0.935 0.119,-1.549 1.063,-1.641 0.614,-0.059 1.215,0.055 1.77,0.354 1.005,0.54 2.182,-0.235 2.218,-0.711 0.129,-1.701 0.982,-0.954 1.628,-0.633 0.932,0.468 1.16,0.073 0.941,-0.711 -0.936,-3.324 -1.66,-6.716 -2.925,-9.944 -0.033,-0.082 -0.102,-0.147 -0.152,-0.216 -0.271,-0.367 -0.455,-0.741 -0.571,-1.124 l 8.075,-6.021 z"
           style="fill:#f57515;fill-opacity:1;fill-rule:nonzero;stroke:none"
           id="path21023"
           inkscape:connector-curvature="0" /><path
           d="m 377.904,442.086 c -0.245,-0.817 -0.167,-1.675 0.108,-2.589 0.505,-1.715 0.573,-3.452 -0.698,-4.929 -0.222,-0.262 -0.367,-0.536 -0.457,-0.821 l 9.122,2.318 z"
           style="fill:#f68712;fill-opacity:1;fill-rule:nonzero;stroke:none"
           id="path21025"
           inkscape:connector-curvature="0" /><path
           d="m 323.708,318.315 c -0.085,0.325 -0.036,0.789 0.053,1.526 0.178,1.494 0.903,2.814 1.133,4.281 0.876,5.566 2.494,11.013 2.668,16.693 0.009,0.257 -0.01,0.601 0.142,0.756 0.985,1.009 0.738,2.311 0.71,3.467 -0.041,1.974 -0.373,3.816 -1.215,5.653 l -46.178,0.253 c -0.064,-0.378 -0.088,-0.769 -0.058,-1.179 0.05,-0.657 -0.284,-1.164 -0.505,-1.729 -1.751,-4.438 -1.091,-8.789 0.367,-13.167 1.476,-4.411 5.318,-7.556 6.345,-12.181 0.018,-0.079 0.092,-0.147 0.133,-0.225 0.995,-1.926 0.898,-2.196 -1.205,-2.985 -2.958,-1.105 -6.057,-1.582 -9.188,-1.801 -1.754,-0.12 -3.292,-0.513 -4.622,-1.734 l 37.391,-51.846 z"
           style="fill:#f8b137;fill-opacity:1;fill-rule:nonzero;stroke:none"
           id="path21027"
           inkscape:connector-curvature="0" /><path
           d="m 259.864,333.17 c -0.04,0.893 -0.106,1.79 -0.188,2.689 -0.032,0.349 0.059,0.697 0.041,1.045 -0.111,2.192 -0.376,4.456 -1.664,6.217 -1.799,2.458 -3.026,5.14 -3.865,7.97 l -7.277,0.04 z"
           style="fill:#f8b137;fill-opacity:1;fill-rule:nonzero;stroke:none"
           id="path21029"
           inkscape:connector-curvature="0" /><path
           d="m 326.571,351.901 c -2.283,3.911 -5.813,6.616 -8.537,10.064 -0.306,0.394 -0.798,0.692 -1.261,0.898 -1.893,0.858 -3.795,1.683 -5.716,2.476 -1.21,0.509 -2.467,0.898 -3.806,0.522 -0.513,-0.141 -1.026,-0.046 -1.54,-0.054 -2.742,-0.065 -5.507,0.449 -8.216,-0.409 -1.431,-0.454 -2.833,-0.541 -4.337,0.014 -3.21,1.188 -6.776,-0.733 -7.304,-4.14 -0.417,-2.701 -1.609,-4.855 -3.181,-6.955 -0.762,-1.022 -1.438,-2.116 -1.652,-3.373 l 46.178,-0.253 c -0.183,0.403 -0.391,0.806 -0.628,1.21"
           style="fill:#f8a211;fill-opacity:1;fill-rule:nonzero;stroke:none"
           id="path21031"
           inkscape:connector-curvature="0" /><path
           d="m 254.188,351.091 c -0.165,0.559 -0.317,1.125 -0.454,1.695 -0.478,1.993 -1.002,3.972 -1.552,5.942 l -5.271,-7.597 z"
           style="fill:#f8a211;fill-opacity:1;fill-rule:nonzero;stroke:none"
           id="path21033"
           inkscape:connector-curvature="0" /><path
           d="m 232.638,268.043 c -0.245,0.775 -0.229,1.606 -0.095,2.475 0.066,0.43 0.209,0.866 0.172,1.288 -0.181,1.985 -0.49,3.965 -0.608,5.956 -0.153,2.599 -0.456,5.235 -0.185,7.802 0.564,5.365 0.813,10.738 0.972,16.117 0.064,2.255 -0.115,4.51 0.527,6.729 0.262,0.903 0.264,1.857 0.167,2.838 -0.213,2.218 -0.277,4.431 0.001,6.624 l -19.578,-48.875 z"
           style="fill:#f58b46;fill-opacity:1;fill-rule:nonzero;stroke:none"
           id="path21035"
           inkscape:connector-curvature="0" /><path
           d="m 272.288,315.943 c -0.096,-0.088 -0.19,-0.178 -0.284,-0.275 -1.027,-1.055 -2.559,-1.453 -3.966,-1.916 -1.403,-0.468 -2.801,-0.903 -4.14,-1.56 -2.15,-1.048 -3.484,-0.306 -3.837,2.128 -0.29,1.994 -0.711,3.934 -1.623,5.736 -0.417,0.82 -0.628,1.728 -0.266,2.526 1.561,3.429 1.852,6.981 1.692,10.588 l -12.953,17.961 -3.649,-9.111 c 0.014,-0.058 0.026,-0.116 0.042,-0.173 0.577,-2.201 0.563,-4.204 -0.908,-6.13 -0.787,-1.027 -1.149,-2.333 -1.222,-3.672 -0.069,-1.275 0.105,-2.535 1.075,-3.374 1.586,-1.376 1.815,-3.118 1.623,-4.988 -0.468,-4.522 -0.146,-9.014 0.33,-13.508 0.147,-1.394 0.39,-2.741 0.89,-4.062 0.65,-1.705 1.293,-3.42 1.774,-5.175 1.151,-4.214 3.947,-6.882 7.84,-8.487 2.581,-1.068 5.263,-1.811 8.119,-1.715 1.302,0.041 2.605,-0.132 3.888,-0.408 2.128,-0.454 4.255,-0.912 6.465,-0.637 1.21,0.147 1.962,-0.413 2.351,-1.587 0.519,-1.568 1.188,-3.081 1.674,-4.658 0.926,-2.989 1.642,-5.992 1.275,-9.206 -0.325,-2.855 -0.482,-5.716 0.017,-8.547 l 31.184,-1.596 z"
           style="fill:#f58b46;fill-opacity:1;fill-rule:nonzero;stroke:none"
           id="path21037"
           inkscape:connector-curvature="0" /><path
           d="m 247.54,148.519 c 4.163,-0.344 8.233,-0.138 11.232,3.447 0.055,0.064 0.133,0.138 0.211,0.146 2.595,0.454 3.228,2.985 4.736,4.567 1.064,1.119 0.702,2.21 -0.697,2.938 -1.301,0.684 -2.783,1.005 -4.185,0.862 -0.913,-0.086 -1.899,0.505 -2.761,-0.248 -0.353,-0.306 -0.716,-0.518 -1.088,-0.643 l -7.57,-11.062 c 0.04,-0.003 0.081,-0.005 0.122,-0.007"
           style="fill:#b97b65;fill-opacity:1;fill-rule:nonzero;stroke:none"
           id="path21039"
           inkscape:connector-curvature="0" /><path
           d="m 286.034,204.952 c 0.526,-1.276 0.936,-2.613 1.223,-3.902 0.913,-4.062 2.329,-8.019 2.861,-12.177 0.097,-0.77 0.174,-1.605 0.711,-2.21 1.155,-1.284 1.2,-2.81 1.183,-4.406 -0.028,-2.091 0.046,-4.163 -0.633,-6.203 -0.468,-1.416 -0.458,-2.939 -0.248,-4.41 0.312,-2.243 0.743,-4.456 1.303,-6.663 0.948,-3.74 2.353,-7.33 3.562,-10.981 l 12.928,2.567 c -0.454,2.639 -0.234,5.335 -0.494,7.989 -0.02,0.195 -0.037,0.39 -0.056,0.587 l -16.195,48.786 z"
           style="fill:#b97b65;fill-opacity:1;fill-rule:nonzero;stroke:none"
           id="path21041"
           inkscape:connector-curvature="0" /><path
           d="m 309.679,264.097 -31.184,1.596 c 0.165,-0.932 0.401,-1.861 0.726,-2.786 0.512,-1.476 0.301,-3.108 0.063,-4.672 -0.334,-2.242 0.138,-4.515 -0.27,-6.762 -0.124,-0.706 0.11,-1.467 0.591,-1.953 1.147,-1.142 1.014,-2.522 0.972,-3.916 -0.064,-2.187 0.102,-4.273 1,-6.373 0.917,-2.131 1.329,-4.488 1.889,-6.766 0.119,-0.496 0.476,-1.147 -0.395,-1.541 -1.531,-0.688 -1.54,-2.081 -1.558,-3.517 -0.028,-2.086 0.999,-4.08 0.504,-6.176 -0.01,-0.042 -0.016,-0.084 -0.026,-0.126 l 10.188,-7.176 z"
           style="fill:#de9c54;fill-opacity:1;fill-rule:nonzero;stroke:none"
           id="path21043"
           inkscape:connector-curvature="0" /><path
           d="m 234.532,254.54 c -0.109,1.497 -0.244,2.992 -0.483,4.479 -0.271,1.687 -0.412,3.484 0.054,5.19 0.262,0.972 -0.012,1.752 -0.618,2.402 -0.421,0.451 -0.688,0.93 -0.847,1.432 l -18.627,0.954 z"
           style="fill:#de9c54;fill-opacity:1;fill-rule:nonzero;stroke:none"
           id="path21045"
           inkscape:connector-curvature="0" /><path
           d="m 246.911,351.131 5.271,7.597 c -1.042,3.719 -2.19,7.405 -3.359,11.085 -1.815,5.727 -3.365,11.522 -4.474,17.432 -1.091,5.822 -2.703,11.517 -4.454,17.165 -0.188,0.605 -0.397,1.202 -0.62,1.793 l -18.031,-1.871 z"
           style="fill:#f57914;fill-opacity:1;fill-rule:nonzero;stroke:none"
           id="path21047"
           inkscape:connector-curvature="0" /><path
           d="m 239.275,406.203 c -1.489,3.953 -3.643,7.65 -4.895,11.709 -0.127,0.408 -0.354,0.802 -0.597,1.16 -1.824,2.696 -3.016,5.69 -3.892,8.793 -1.465,5.186 -2.797,10.407 -4.22,15.607 -1.438,5.254 -2.02,10.591 -1.773,16.019 0.028,0.606 -0.204,1.366 0.262,1.77 1.465,1.26 1.305,3.173 2.052,4.713 0.637,1.311 0.412,2.618 -0.296,3.75 -1.203,1.927 -2.189,3.949 -3.016,6.032 l -1.656,-71.424 z"
           style="fill:#f36218;fill-opacity:1;fill-rule:nonzero;stroke:none"
           id="path21049"
           inkscape:connector-curvature="0" /><path
           d="m 241.662,148.378 c 1.894,0.229 3.807,0.298 5.756,0.148 l 7.57,11.062 c -0.804,-0.271 -1.652,-0.132 -2.543,0.342 -0.788,0.417 -1.715,0.371 -2.572,0.26 -0.839,-0.109 -1.562,0.074 -2.241,0.464 -3.934,2.246 -7.829,4.543 -10.986,7.863 -0.792,0.838 -1.371,1.796 -1.643,2.929 -0.55,2.283 -0.915,4.594 -1.023,6.95 -0.153,3.316 0.327,6.607 0.433,9.908 0.119,3.619 0.427,7.223 0.717,10.828 l -17.619,-4.569 z"
           style="fill:#c26756;fill-opacity:1;fill-rule:nonzero;stroke:none"
           id="path21051"
           inkscape:connector-curvature="0" /><path
           d="m 283.509,211.681 c 0.398,-1.729 0.895,-3.433 1.745,-5.047 0.285,-0.54 0.544,-1.106 0.78,-1.682 l 6.145,8.977 z"
           style="fill:#c26756;fill-opacity:1;fill-rule:nonzero;stroke:none"
           id="path21053"
           inkscape:connector-curvature="0" /><path
           d="m 281.991,221.105 c -0.259,-1.19 -0.182,-2.366 0.155,-3.482 0.578,-1.946 0.906,-3.96 1.363,-5.942 l 8.67,2.248 z"
           style="fill:#d4714d;fill-opacity:1;fill-rule:nonzero;stroke:none"
           id="path21055"
           inkscape:connector-curvature="0" /><path
           d="m 217.511,194.563 17.619,4.569 c 0.219,2.716 0.428,5.431 0.54,8.153 0.218,5.305 0.733,10.6 0.876,15.9 0.199,7.565 0.451,15.162 -1.092,22.639 -0.593,2.88 -0.709,5.802 -0.922,8.716 l -20.521,14.457 z"
           style="fill:#d4714d;fill-opacity:1;fill-rule:nonzero;stroke:none"
           id="path21057"
           inkscape:connector-curvature="0" /><path
           d="m 221.244,404.332 1.656,71.424 c -0.738,1.861 -1.348,3.771 -1.867,5.71 -0.015,0.058 -0.035,0.114 -0.052,0.173 l -46.404,-69.607 z"
           style="fill:#f1501b;fill-opacity:1;fill-rule:nonzero;stroke:none"
           id="path21059"
           inkscape:connector-curvature="0" /><path
           d="m 190.855,502.881 c 0.419,0.22 0.864,0.398 1.31,0.578 0.656,-0.056 0.808,-0.633 0.915,-1.083 0.07,-0.298 0.227,-0.623 0.363,-0.943 l 3.442,-1.926 c -0.496,1.565 -0.913,3.176 -1.576,4.671 -0.787,1.779 -0.553,3.384 0.325,4.998 1.928,3.549 3.229,7.312 3.927,11.287 0.293,1.683 0.949,2.884 2.668,3.819 3.613,1.97 4.339,6.71 1.955,9.805 l -20.274,-27.32 z"
           style="fill:#ee2e21;fill-opacity:1;fill-rule:nonzero;stroke:none"
           id="path21061"
           inkscape:connector-curvature="0" /><path
           d="m 213.67,491.648 c -1.086,0.931 -2.352,1.614 -3.736,1.77 -1.267,0.143 -2.475,0.443 -3.651,0.83 l 11.144,-6.234 c -1.129,1.299 -2.412,2.484 -3.757,3.634"
           style="fill:#ee2e21;fill-opacity:1;fill-rule:nonzero;stroke:none"
           id="path21063"
           inkscape:connector-curvature="0" /><path
           d="m 221.244,404.332 -54.134,-42.935 62.655,-8.06 c 0.042,0.143 0.082,0.286 0.128,0.43 0.457,1.43 0.197,2.755 -0.729,3.943 -0.616,0.788 -0.807,1.724 -0.905,2.678 -0.204,1.994 -0.356,3.988 -0.599,5.977 -0.456,3.751 -1.426,7.346 -3.549,10.546 -1.604,2.416 -2.672,5.062 -3.381,7.876 -0.915,3.631 -1.459,7.331 -1.961,11.04 -0.261,1.916 -0.981,3.816 -0.415,5.786 2.124,-4.352 4.192,-8.741 6.383,-13.061 4.342,-8.56 9.56,-16.602 14.796,-24.635 1.093,-1.678 2.212,-3.347 3.009,-5.189 0.45,-1.037 0.862,-2.073 0.321,-3.255 -0.546,-1.201 -0.745,-2.448 -0.78,-3.721 l 4.828,-0.621 z"
           style="fill:#f36019;fill-opacity:1;fill-rule:nonzero;stroke:none"
           id="path21065"
           inkscape:connector-curvature="0" /><path
           d="m 214.011,268.997 19.578,48.875 c 0.146,1.157 0.387,2.31 0.754,3.453 0.476,1.487 0.731,3.045 1.056,4.576 0.196,0.921 -0.069,1.591 -1.16,1.504 -1.301,-0.105 -1.352,0.697 -1.334,1.646 0.026,1.393 0.058,2.792 -0.013,4.18 -0.181,3.49 -0.259,7.171 -2.006,10.165 -1.952,3.341 -2.126,6.505 -1.121,9.941 l -62.655,8.06 z"
           style="fill:#f3611b;fill-opacity:1;fill-rule:nonzero;stroke:none"
           id="path21067"
           inkscape:connector-curvature="0" /><path
           d="m 242.083,351.752 c -0.02,-0.716 0.013,-1.44 0.065,-2.171 0.184,-2.554 0.484,-5.085 1.114,-7.561 l 3.649,9.111 z"
           style="fill:#f3611b;fill-opacity:1;fill-rule:nonzero;stroke:none"
           id="path21069"
           inkscape:connector-curvature="0" /><path
           d="m 157.475,178.223 c 0.055,-0.259 0.11,-0.519 0.164,-0.778 l 17.905,-6.988 c -0.189,0.892 -0.685,1.737 -1.485,2.259 -1.177,0.762 -1.422,1.953 -1.62,3.14 -0.442,2.658 -0.749,5.317 -0.773,7.987 l -14.707,-3.439 c 0.187,-0.722 0.359,-1.45 0.516,-2.181"
           style="fill:#c03545;fill-opacity:1;fill-rule:nonzero;stroke:none"
           id="path21071"
           inkscape:connector-curvature="0" /><path
           d="m 215.517,194.096 c 0.191,-1.038 0.391,-2.075 0.603,-3.11 1.312,-6.382 3.035,-12.722 3.455,-19.251 0.386,-5.978 0.995,-11.994 -0.616,-17.926 -0.024,-0.089 -0.043,-0.181 -0.066,-0.271 l 16.5,-6.44 c 0.104,0.027 0.209,0.053 0.314,0.082 1.976,0.533 3.955,0.955 5.955,1.198 l -24.151,46.185 z"
           style="fill:#c03545;fill-opacity:1;fill-rule:nonzero;stroke:none"
           id="path21073"
           inkscape:connector-curvature="0" /><path
           d="m 218.379,150.205 c -0.11,-1.866 0.652,-2.98 2.384,-3.612 1.143,-0.418 2.336,-0.615 3.573,-0.675 3.754,-0.169 7.44,0.239 11.057,1.18 l -16.5,6.44 c -0.277,-1.088 -0.449,-2.215 -0.514,-3.333"
           style="fill:#b01e3e;fill-opacity:1;fill-rule:nonzero;stroke:none"
           id="path21075"
           inkscape:connector-curvature="0" /><path
           d="m 157.702,164.345 c -0.743,-2.28 -0.41,-4.109 0.997,-6.098 1.618,-2.283 2.304,-4.896 0.195,-7.432 -0.22,-0.265 -0.389,-0.583 -0.534,-0.898 -1.105,-2.435 -1.561,-4.668 2.59,-4.943 0.523,-0.033 1.05,-0.028 1.564,-0.115 3.133,-0.522 6.494,0.092 9.353,-1.847 0.133,-0.092 0.336,-0.078 0.506,-0.106 5.131,-0.999 10.024,-0.095 14.749,1.926 1.649,0.706 2.279,2.045 1.518,3.604 -1.164,2.383 -2.185,4.833 -5.135,5.891 -3.457,1.238 -5.446,4.194 -7.074,7.35 -0.324,0.623 -0.654,1.302 -0.367,1.998 0.903,2.215 -0.222,4.282 -0.459,6.4 -0.013,0.128 -0.035,0.255 -0.061,0.382 l -17.905,6.988 c 0.901,-4.352 1.487,-8.734 0.063,-13.1"
           style="fill:#b01e3e;fill-opacity:1;fill-rule:nonzero;stroke:none"
           id="path21077"
           inkscape:connector-curvature="0" /><path
           d="m 167.11,361.397 -0.233,-105.467 8.76,2.428 c -0.216,2.856 0.147,5.653 1.265,8.377 0.157,0.38 0.265,0.931 0.109,1.265 -1.171,2.509 0.119,4.971 0.059,7.451 -0.018,0.798 0.303,1.559 0.741,2.205 1.02,1.513 1.277,3.177 1.304,4.961 0.023,1.549 0.291,3.076 0.128,4.662 -0.112,1.087 -0.167,2.321 0.361,3.338 0.956,1.862 0.985,3.851 1.138,5.85 0.113,1.467 0.299,2.939 0.524,4.396 0.398,2.601 0.68,2.802 3.183,2.215 2.385,-0.568 4.716,-0.949 7.217,-0.495 2.517,0.454 4.395,-0.614 5.186,-2.489 3.114,-7.405 5.169,-15.108 6.227,-23.066 0.473,-3.552 1.066,-7.064 1.915,-10.531 l 9.017,2.5 z"
           style="fill:#f14c30;fill-opacity:1;fill-rule:nonzero;stroke:none"
           id="path21079"
           inkscape:connector-curvature="0" /><path
           d="m 214.011,268.997 -9.017,-2.5 c 0.35,-1.428 0.742,-2.848 1.19,-4.26 0.864,-2.727 1.916,-5.391 2.603,-8.187 0.915,-3.714 0.599,-7.446 0.56,-11.178 -0.092,-8.886 0.078,-17.716 2.145,-26.468 1.453,-6.146 2.332,-12.41 3.383,-18.647 l 2.636,-3.194 z"
           style="fill:#dc533d;fill-opacity:1;fill-rule:nonzero;stroke:none"
           id="path21081"
           inkscape:connector-curvature="0" /><path
           d="m 174.05,247.236 c -0.023,1.28 -0.332,2.636 0.771,3.668 0.25,0.23 0.124,1.041 -0.046,1.504 -0.391,1.082 -0.515,1.999 0.594,2.751 0.459,0.312 0.558,0.871 0.473,1.421 -0.093,0.596 -0.16,1.188 -0.205,1.778 l -8.76,-2.428 z"
           style="fill:#dc533d;fill-opacity:1;fill-rule:nonzero;stroke:none"
           id="path21083"
           inkscape:connector-curvature="0" /><path
           d="m 167.11,361.397 54.134,42.935 -46.667,7.7 z"
           style="fill:#f2561a;fill-opacity:1;fill-rule:nonzero;stroke:none"
           id="path21085"
           inkscape:connector-curvature="0" /><path
           d="m 204.184,534.087 c -0.207,0.268 -0.435,0.526 -0.69,0.767 -0.38,0.363 -0.839,0.625 -0.932,1.193 -0.489,2.989 -1.331,5.978 0.716,8.784 0.92,1.261 1.193,2.723 0.537,4.214 -0.947,2.145 -1.925,4.277 -2.92,6.404 -0.374,0.793 -0.96,1.431 -1.632,2.008 -1.188,1.032 -2.236,2.201 -3.083,3.525 -2.462,3.843 -5.461,6.929 -10.286,7.58 -0.494,0.064 -1.004,0.339 -1.415,0.641 -3.259,2.412 -6.752,2.174 -10.459,1.252 -2.392,-0.596 -4.492,-1.852 -6.818,-2.508 -1.472,-0.412 -2.804,-1.072 -4.073,-1.833 l 20.781,-59.347 z"
           style="fill:#e52324;fill-opacity:1;fill-rule:nonzero;stroke:none"
           id="path21087"
           inkscape:connector-curvature="0" /><path
           d="m 193.44,499.979 c -0.586,-0.514 -1.536,0.316 -2.283,0.655 -0.468,0.22 -0.896,0.523 -1.32,0.821 -0.202,0.142 -0.395,0.353 -0.138,0.609 0.346,0.339 0.739,0.598 1.156,0.817 l -6.945,3.886 -9.333,-94.735 46.404,69.607 c -0.702,2.507 -1.974,4.555 -3.554,6.375 l -11.144,6.234 c -2.53,0.834 -4.91,2.072 -7.398,3.022 -1.11,0.42 -1.66,1.164 -1.992,2.213 -0.003,0.008 -0.006,0.016 -0.008,0.024 l -3.442,1.926 c 0.236,-0.553 0.413,-1.092 -0.003,-1.454"
           style="fill:#f03e1e;fill-opacity:1;fill-rule:nonzero;stroke:none"
           id="path21089"
           inkscape:connector-curvature="0" /><path
           d="m 214.875,197.757 c 0.205,-1.222 0.417,-2.443 0.642,-3.661 l 1.994,0.467 z"
           style="fill:#cc403d;fill-opacity:1;fill-rule:nonzero;stroke:none"
           id="path21091"
           inkscape:connector-curvature="0" /><path
           d="m 154.329,188.461 c 0.166,-0.498 0.341,-0.993 0.528,-1.486 0.819,-2.16 1.529,-4.345 2.102,-6.571 l 14.707,3.439 c -0.017,1.836 0.1,3.677 0.402,5.525 0.828,5.08 1.382,10.178 1.264,15.34 -0.102,4.264 -0.308,8.532 -0.391,12.782 -0.102,5.364 -1.538,10.739 -0.226,16.12 0.057,0.239 0.043,0.541 -0.041,0.771 -1.142,3.122 0.242,6.212 0.094,9.316 -0.029,0.55 0.277,1.004 0.634,1.398 0.57,0.627 0.661,1.37 0.648,2.141 l -7.173,8.694 z"
           style="fill:#cc403d;fill-opacity:1;fill-rule:nonzero;stroke:none"
           id="path21093"
           inkscape:connector-curvature="0" /><path
           d="m 148.354,245.299 c -0.077,-0.807 -0.156,-1.612 -0.239,-2.418 -0.866,-8.362 -0.864,-16.679 0.41,-25 0.909,-5.938 1.788,-11.88 3.022,-17.757 0.82,-3.908 1.516,-7.861 2.782,-11.663 l 12.548,67.469 z"
           style="fill:#ca3134;fill-opacity:1;fill-rule:nonzero;stroke:none"
           id="path21095"
           inkscape:connector-curvature="0" /><path
           d="m 150.658,279.547 c -10e-4,-0.711 -0.044,-1.424 -0.163,-2.139 -0.142,-0.847 -0.234,-1.764 -0.076,-2.598 0.548,-2.899 0.133,-5.713 -0.366,-8.556 -0.345,-1.962 -0.716,-3.943 -0.762,-5.924 -0.02,-0.841 -0.047,-1.681 -0.079,-2.519 l 17.665,-1.881 z"
           style="fill:#e4352c;fill-opacity:1;fill-rule:nonzero;stroke:none"
           id="path21097"
           inkscape:connector-curvature="0" /><path
           d="m 115.479,330.766 c 0.009,-0.624 -0.016,-1.197 -0.266,-1.775 -1.676,-3.879 -1.763,-7.931 -1.164,-12.021 0.165,-1.118 0.364,-2.219 0.47,-3.352 0.277,-2.961 0.753,-3.383 3.748,-3.351 1.755,0.019 3.106,-0.458 4.333,-1.879 1.783,-2.068 3.2,-4.301 4.252,-6.799 0.582,-1.381 1.373,-2.627 2.638,-3.499 1.795,-1.229 3.555,-2.513 5.417,-3.631 1.45,-0.871 2.668,-1.807 3.408,-3.434 0.958,-2.109 2.609,-3.36 5.096,-3.462 0.624,-0.026 1.247,-0.095 1.868,-0.184 l -29.8,43.393 z"
           style="fill:#e4352c;fill-opacity:1;fill-rule:nonzero;stroke:none"
           id="path21099"
           inkscape:connector-curvature="0" /><path
           d="m 167.11,361.397 -40.86,-5.285 c -0.273,-0.532 -0.551,-1.062 -0.831,-1.592 -1.057,-2 -2.717,-3.706 -3.234,-5.933 -0.376,-1.609 -1.11,-2.981 -2.154,-4.108 -3.603,-3.91 -4.629,-8.616 -4.552,-13.707 l 29.8,-43.393 c 1.097,-0.157 2.192,-0.379 3.288,-0.549 1.059,-0.165 1.719,-0.66 1.758,-1.87 0.056,-1.805 0.335,-3.604 0.333,-5.413 l 16.219,-23.617 z"
           style="fill:#f0411e;fill-opacity:1;fill-rule:nonzero;stroke:none"
           id="path21101"
           inkscape:connector-curvature="0" /><path
           d="m 130.257,438.865 c 0.642,-4.512 1.472,-9.003 2.097,-13.516 0.405,-2.93 2.126,-5.167 4.289,-6.928 0.91,-0.738 1.104,-1.275 1.024,-2.265 -0.145,-1.806 -0.638,-3.586 -0.308,-5.442 0.467,-2.612 0.719,-5.249 0.922,-7.892 l 36.296,9.21 z"
           style="fill:#e93d1f;fill-opacity:1;fill-rule:nonzero;stroke:none"
           id="path21103"
           inkscape:connector-curvature="0" /><path
           d="m 163.129,566.114 c -0.733,-0.44 -1.446,-0.914 -2.153,-1.394 -1.889,-1.28 -3.368,-3.045 -4.237,-5.204 -1.031,-2.559 -3.055,-4.654 -3.472,-7.505 -0.035,-0.234 -0.248,-0.458 -0.413,-0.656 -2.306,-2.76 -3.379,-6.029 -3.97,-9.504 -0.398,-2.333 -1.317,-4.172 -3.673,-5.282 -2.109,-0.995 -2.62,-3.571 -1.121,-5.299 0.114,-0.132 0.219,-0.265 0.317,-0.398 l 39.503,-24.105 z"
           style="fill:#dc1e25;fill-opacity:1;fill-rule:nonzero;stroke:none"
           id="path21105"
           inkscape:connector-curvature="0" /><path
           d="m 144.407,530.872 c 1.639,-2.22 1.14,-4.623 0.781,-7.062 -0.13,-0.899 -0.502,-1.627 -1.545,-1.867 -0.763,-0.169 -1.04,-0.861 -1.199,-1.567 -0.755,-3.347 0.215,-6.552 0.846,-9.779 0.064,-0.317 0.314,-0.633 0.553,-0.875 1.302,-1.339 2.088,-3.229 4.216,-3.705 0.691,-0.157 1.652,-1.074 0.791,-1.697 -1.289,-0.925 -1.716,-2.072 -1.989,-3.47 -0.175,-0.904 -0.673,-1.371 -1.696,-0.912 -1.433,0.641 -3.132,-0.134 -4.548,0.847 -0.49,0.344 -0.956,-0.187 -1.346,-0.536 -3.147,-2.788 -6.167,-5.701 -8.85,-8.939 l 53.489,15.457 z"
           style="fill:#de2125;fill-opacity:1;fill-rule:nonzero;stroke:none"
           id="path21107"
           inkscape:connector-curvature="0" /><path
           d="M 183.91,506.767 130.421,491.31 c -0.265,-0.32 -0.529,-0.638 -0.786,-0.964 -1.08,-1.362 -2.353,-2.724 -2.923,-4.305 -1.158,-3.209 -2.77,-6.176 -4.299,-9.192 -1.004,-1.981 -1.1,-3.783 0.345,-5.594 0.417,-0.526 0.545,-1.275 0.895,-1.87 1.266,-2.137 2.079,-4.621 4.665,-5.727 1.023,-0.435 1.085,-1.475 1.071,-2.475 -0.048,-3.31 -0.096,-6.62 -0.119,-9.931 -0.026,-4.171 0.404,-8.288 0.987,-12.387 l 44.32,-26.833 z"
           style="fill:#ed3520;fill-opacity:1;fill-rule:nonzero;stroke:none"
           id="path21109"
           inkscape:connector-curvature="0" /><path
           d="m 174.577,412.032 -36.296,-9.21 c 0.157,-2.046 0.285,-4.094 0.461,-6.137 0.179,-2.078 0.023,-4.15 -0.374,-6.231 -0.486,-2.562 -1.473,-5.007 -1.689,-7.629 -0.049,-0.611 -0.407,-1.203 -0.657,-1.8 l 31.088,-19.628 z"
           style="fill:#f14d1c;fill-opacity:1;fill-rule:nonzero;stroke:none"
           id="path21111"
           inkscape:connector-curvature="0" /><path
           d="m 136.022,381.025 c -0.019,-0.047 -0.04,-0.095 -0.058,-0.144 -1.548,-4.071 -3.398,-8.051 -4.565,-12.223 -1.235,-4.423 -3.076,-8.516 -5.149,-12.546 l 40.86,5.285 z"
           style="fill:#f1471d;fill-opacity:1;fill-rule:nonzero;stroke:none"
           id="path21113"
           inkscape:connector-curvature="0" /><path
           d="m 149.212,257.811 c -0.159,-4.184 -0.462,-8.353 -0.858,-12.512 l 18.523,10.631 z"
           style="fill:#d13533;fill-opacity:1;fill-rule:nonzero;stroke:none"
           id="path21115"
           inkscape:connector-curvature="0" /></g></g></g></svg>